<svg width="22" height="22" viewBox="0 0 22 22" fill="none" xmlns="http://www.w3.org/2000/svg">
<path fill-rule="evenodd" clip-rule="evenodd" d="M4.58333 4.58331H6.41666V6.41665H4.58333V4.58331ZM6.41667 6.41667H8.25V8.25H6.41667V6.41667ZM10.0833 10.0833H8.25L8.25 8.25L10.0833 8.25V10.0833ZM11.9167 10.0833H10.0833V11.9167H8.25V13.75H6.41667L6.41667 15.5833H4.58333V17.4167H6.41667V15.5833L8.25 15.5833L8.25 13.75H10.0833V11.9167H11.9167V13.75H13.75V15.5833L15.5833 15.5833V17.4167H17.4167V15.5833H15.5833L15.5833 13.75H13.75V11.9167H11.9167V10.0833ZM13.75 8.25L13.75 10.0833H11.9167L11.9167 8.25L13.75 8.25ZM15.5833 6.41667V8.25H13.75V6.41667H15.5833ZM15.5833 6.41667V4.58333H17.4167V6.41667H15.5833Z" fill="black"/>
</svg>
