<svg width="90" height="26" viewBox="0 0 90 26" fill="none" xmlns="http://www.w3.org/2000/svg">
<g clip-path="url(#clip0_111_2986)">
<path d="M15.05 0.875L10.29 18.265L10.17 17.815L5.57 0.875H0L7.63 25.125H13L20.62 0.875H15.05Z" fill="#542470"/>
<path d="M32.49 19.505V19.595L34.14 25.125H39.71L32.14 0.875004H26.36L18.66 25.125H24.36L25.99 19.505H32.49ZM27.26 14.985L29.26 7.045L31.26 15.135H27.26V14.985Z" fill="#542470"/>
<path d="M61.55 25.125V0.875H56.08V16.835L47.15 0.875H41.35V25.125H46.79V9.205L55.75 25.125H61.55Z" fill="#542470"/>
<path d="M74.74 24.715C75.2026 23.806 75.9167 23.0492 76.7972 22.5346C77.6778 22.02 78.6878 21.7694 79.7068 21.8126C80.7257 21.8558 81.7108 22.191 82.5447 22.7783C83.3786 23.3655 84.026 24.1801 84.41 25.125H89.99L82.36 0.875004H76.56L71.65 16.365C73.4446 15.0719 75.5352 14.2501 77.73 13.975L79.45 7.045L81.45 14.985L81.94 16.715V16.905H81.76C80.2413 16.5151 78.6487 16.5151 77.13 16.905C75.1189 17.3422 73.2796 18.358 71.8386 19.8275C70.3976 21.2969 69.4178 23.1557 69.02 25.175H74.43C74.43 25.095 74.52 25.025 74.57 24.945C74.6329 24.8731 74.6897 24.7962 74.74 24.715Z" fill="#726B71"/>
</g>
<defs>
<clipPath id="clip0_111_2986">
<rect width="89.98" height="24.25" fill="white" transform="translate(0 0.875)"/>
</clipPath>
</defs>
</svg>
