<svg width="40" height="40" viewBox="0 0 40 40" fill="none" xmlns="http://www.w3.org/2000/svg">
<path fill-rule="evenodd" clip-rule="evenodd" d="M20.0004 4C28.8371 4 36 11.1637 36 20.0004C36 28.8371 28.8363 36 20.0004 36C11.1645 36 4 28.8363 4 20.0004C4 11.1645 11.1637 4 20.0004 4Z" fill="#CE6195"/>
<path d="M16.9907 25.441C17.2236 26.3023 17.1979 27.1053 16.9572 27.832C16.9308 27.913 16.9012 27.9924 16.8692 28.0719C16.8373 28.1505 16.803 28.2284 16.7657 28.3055C16.5803 28.6903 16.3311 29.0501 16.0265 29.3826C15.0966 30.3967 13.7983 30.7806 13.2414 30.4574C12.6402 30.1085 12.9416 28.6786 14.0195 27.5399C15.1792 26.314 16.8474 25.5258 16.8474 25.5258L16.8451 25.5212C16.8926 25.4947 16.9409 25.4682 16.9907 25.441ZM30.2068 10.9593C29.4825 8.11732 24.7705 7.18349 20.3109 8.76764C17.6566 9.71081 14.7843 11.1906 12.718 13.1229C10.2616 15.4205 9.86984 17.4197 10.0318 18.2554C10.6012 21.2033 14.641 23.1309 16.3015 24.5609V24.5694C15.8116 24.8101 12.2282 26.624 11.3894 28.4784C10.5046 30.4348 11.5303 31.8383 12.2095 32.0276C14.3139 32.6132 16.4728 31.5603 17.6333 29.8289C18.7532 28.1583 18.6598 26.0017 18.173 24.9285C18.8444 24.7517 19.6271 24.6722 20.6217 24.7883C23.4286 25.1162 23.9792 26.8686 23.8741 27.6022C23.7689 28.3359 23.1801 28.7393 22.9831 28.8608C22.786 28.9823 22.7261 29.0244 22.7424 29.1155C22.7666 29.2471 22.8577 29.2424 23.0252 29.2136C23.2565 29.1747 24.4987 28.617 24.5517 27.2634C24.6194 25.5445 22.9722 23.6216 20.0555 23.6722C18.8545 23.6932 18.099 23.807 17.5531 24.0102C17.5126 23.9643 17.4721 23.9183 17.4292 23.8732C15.6262 21.9494 12.2928 20.5888 12.4338 18.0023C12.4852 17.0622 12.8123 14.5863 18.8389 11.5831C23.7759 9.12279 27.7285 9.80038 28.4116 11.3004C29.3875 13.4438 26.2994 17.4275 21.1723 18.0023C19.219 18.2211 18.1901 17.4641 17.9347 17.1822C17.6652 16.8854 17.6255 16.8722 17.525 16.9275C17.3615 17.0178 17.465 17.2803 17.525 17.4369C17.6777 17.8356 18.3062 18.542 19.3771 18.8933C20.3195 19.2025 22.6124 19.3723 25.3866 18.2998C28.4934 17.0957 30.9194 13.753 30.2068 10.9593Z" fill="white"/>
</svg>
