<svg width="180" height="28" viewBox="0 0 180 28" fill="none" xmlns="http://www.w3.org/2000/svg">
<g clip-path="url(#clip0_306_3477)">
<path d="M104.131 10.5H103.244L103.091 10.36L102.204 8.18588L101.908 8.03764H97.8937L97.5979 8.18588L96.702 10.36L96.5499 10.5H95.6625L95.5188 10.36V9.34705L99.0769 0.502346L99.229 0.354111H100.564L100.717 0.502346L104.283 9.33058V10.3435L104.131 10.4835V10.5ZM99.9728 2.53646H99.8206L98.1895 6.58823L98.3416 6.73646H101.46L101.612 6.58823L99.9812 2.53646H99.9728Z" fill="white"/>
<path d="M107.985 10.64C106.049 10.64 105.018 9.77528 105.018 8.17764L105.162 8.0294H106.354L106.506 8.17764C106.506 8.90234 106.954 9.33881 107.993 9.33881C109.033 9.33881 109.481 9.05058 109.481 8.47411C109.481 7.7494 109.033 7.6094 107.554 7.31293C106.066 7.0247 105.179 6.43999 105.179 5.13881C105.179 4.12587 105.923 3.11293 108.002 3.11293C109.633 3.11293 110.824 3.83764 110.824 5.28705L110.681 5.43528H109.489L109.337 5.28705C109.337 4.85058 109.041 4.42234 108.002 4.42234C107.258 4.42234 106.666 4.56234 106.666 5.14705C106.666 5.87175 107.258 6.01175 108.745 6.30822C110.233 6.59646 110.977 7.17293 110.977 8.48234C110.977 9.64352 110.089 10.6565 108.002 10.6565L107.985 10.64Z" fill="white"/>
<path d="M114.822 10.64C112.887 10.64 111.847 9.77528 111.847 8.17764L111.991 8.0294H113.182L113.326 8.17764C113.326 8.90234 113.774 9.33881 114.814 9.33881C115.853 9.33881 116.301 9.05058 116.301 8.47411C116.301 7.7494 115.853 7.6094 114.366 7.31293C112.878 7.0247 111.991 6.43999 111.991 5.13881C111.991 4.12587 112.735 3.11293 114.814 3.11293C116.445 3.11293 117.636 3.83764 117.636 5.28705L117.484 5.43528H116.293L116.14 5.28705C116.14 4.85058 115.845 4.42234 114.805 4.42234C114.061 4.42234 113.47 4.56234 113.47 5.14705C113.47 5.87175 114.061 6.01175 115.549 6.30822C117.036 6.59646 117.78 7.17293 117.78 8.48234C117.78 9.64352 116.884 10.6565 114.814 10.6565L114.822 10.64Z" fill="white"/>
<path d="M118.676 6.87646C118.676 4.85058 119.715 3.11293 122.09 3.11293C124.465 3.11293 125.505 4.85058 125.505 6.87646V7.31293L125.353 7.46117H120.451L120.307 7.6094C120.307 7.89764 120.451 9.34705 122.242 9.34705C122.834 9.34705 123.434 9.19881 123.73 8.48234L123.882 8.33411H125.065L125.217 8.48234C125.065 9.64352 124.026 10.6565 122.251 10.6565C119.876 10.6565 118.684 9.06705 118.684 6.89293L118.676 6.87646ZM123.874 6.15175C123.874 5.71528 123.721 4.41411 122.09 4.41411C120.459 4.41411 120.307 5.71528 120.307 6.15175L120.451 6.29999H123.721L123.874 6.15175Z" fill="white"/>
<path d="M130.855 10.5H129.663C128.623 10.5 127.584 9.92352 127.584 8.62235V4.70235L127.432 4.55411H126.392L126.24 4.41411V3.40117L126.392 3.25294H127.432L127.584 3.1047V1.80352L127.727 1.65529H128.919L129.063 1.80352V3.1047L129.207 3.25294H130.846L130.99 3.40117V4.41411L130.846 4.55411H129.207L129.063 4.70235V8.61411C129.063 9.05058 129.359 9.19058 129.654 9.19058H130.846L130.99 9.33882V10.3518L130.846 10.4918L130.855 10.5Z" fill="white"/>
<path d="M107.097 24.9612H105.906L105.754 24.8212V17.8706H105.61L102.635 24.8212L102.491 24.9612H101.156L101.004 24.8212L98.0289 17.8706H97.8768V24.8212L97.7331 24.9612H96.5415L96.3978 24.8212V14.9718L96.5415 14.8235H98.1726L98.3247 14.9718L101.739 23.0835H101.891L105.306 14.9718L105.458 14.8235H107.089L107.241 14.9718V24.8212L107.089 24.9612H107.097Z" fill="white"/>
<path d="M114.966 24.9612H113.926L113.774 24.8212L113.622 24.2447H113.478C113.478 24.2447 112.887 25.1094 111.399 25.1094C109.768 25.1094 108.872 24.2447 108.872 22.7953C108.872 21.2059 110.208 20.4812 112.143 20.4812C112.887 20.4812 113.478 20.6294 113.478 20.6294L113.622 20.4812V20.1929C113.622 19.18 113.174 18.8918 112.134 18.8918C111.095 18.8918 110.647 19.18 110.647 19.7565L110.503 19.9047H109.312L109.16 19.7565C109.16 18.7435 109.903 17.5824 112.134 17.5824C114.366 17.5824 115.109 18.5953 115.109 20.7694V24.8212L114.966 24.9612ZM113.63 21.9224L113.487 21.7741C113.487 21.7741 113.039 21.6341 112.295 21.6341C110.96 21.6341 110.36 22.0706 110.36 22.7953C110.36 23.52 110.808 23.8082 111.695 23.8082C112.887 23.8082 113.63 23.2318 113.63 22.3588V21.9224Z" fill="white"/>
<path d="M122.986 24.9612H121.795L121.642 24.8212V20.6212C121.642 19.8965 121.49 18.8835 120.155 18.8835C118.82 18.8835 118.228 19.6082 118.228 21.3459V24.8212L118.076 24.9612H116.884L116.732 24.8212V17.8706L116.884 17.7306H117.924L118.076 17.8706L118.228 18.4553H118.38C118.38 18.4553 118.972 17.5906 120.307 17.5906C122.386 17.5906 123.13 18.8918 123.13 20.6294V24.8294L122.986 24.9694V24.9612Z" fill="white"/>
<path d="M130.407 24.9612H129.367L129.223 24.8212L129.071 24.2447H128.919C128.919 24.2447 128.328 25.1094 126.84 25.1094C125.209 25.1094 124.313 24.2447 124.313 22.7953C124.313 21.2059 125.648 20.4812 127.584 20.4812C128.328 20.4812 128.919 20.6294 128.919 20.6294L129.071 20.4812V20.1929C129.071 19.18 128.623 18.8918 127.584 18.8918C126.544 18.8918 126.096 19.18 126.096 19.7565L125.953 19.9047H124.761L124.609 19.7565C124.609 18.7435 125.353 17.5824 127.584 17.5824C129.815 17.5824 130.559 18.5953 130.559 20.7694V24.8212L130.415 24.9612H130.407ZM129.071 21.9224L128.919 21.7741C128.919 21.7741 128.471 21.6341 127.727 21.6341C126.392 21.6341 125.792 22.0706 125.792 22.7953C125.792 23.52 126.24 23.8082 127.127 23.8082C128.319 23.8082 129.063 23.2318 129.063 22.3588V21.9224H129.071Z" fill="white"/>
<path d="M137.092 24.2447H136.94C136.94 24.2447 136.348 25.1094 135.004 25.1094C132.925 25.1094 131.733 23.52 131.733 21.3459C131.733 19.1718 132.925 17.5824 135.004 17.5824C136.34 17.5824 136.94 18.4471 136.94 18.4471H137.092L137.244 17.8624L137.388 17.7224H138.427L138.571 17.8624V24.0882C138.571 26.9871 136.94 28 135.156 28C133.373 28 132.334 27.1353 132.181 25.9741L132.334 25.8259H133.525L133.669 25.9741C133.965 26.5506 134.413 26.6988 135.156 26.6988C136.492 26.6988 137.092 25.8341 137.092 24.2365V24.2447ZM135.156 18.8918C133.965 18.8918 133.229 19.7565 133.229 21.3541C133.229 22.9518 133.973 23.8165 135.156 23.8165C136.34 23.8165 137.092 23.0918 137.092 21.3541C137.092 19.6165 136.348 18.8918 135.156 18.8918Z" fill="white"/>
<path d="M139.906 21.3459C139.906 19.32 140.946 17.5824 143.321 17.5824C145.695 17.5824 146.743 19.32 146.743 21.3459V21.7824L146.591 21.9306H141.689L141.537 22.0788C141.537 22.3671 141.689 23.8165 143.473 23.8165C144.064 23.8165 144.664 23.6682 144.96 22.9518L145.104 22.8035H146.295L146.439 22.9518C146.295 24.1129 145.247 25.1259 143.473 25.1259C141.098 25.1259 139.906 23.5365 139.906 21.3624V21.3459ZM145.104 20.6212C145.104 20.1847 144.96 18.8835 143.321 18.8835C141.681 18.8835 141.537 20.1847 141.537 20.6212L141.689 20.7694H144.96L145.104 20.6212Z" fill="white"/>
<path d="M158.33 24.9612H157.139L156.987 24.8212V20.4729C156.987 19.6082 156.843 18.8835 155.651 18.8835C154.612 18.8835 154.02 19.6082 154.02 20.7694V24.8212L153.868 24.9612H152.676L152.533 24.8212V20.4729C152.533 19.6082 152.381 18.8835 151.197 18.8835C150.454 18.8835 149.566 19.32 149.566 20.7694V24.8212L149.422 24.9612H148.231L148.079 24.8212V17.8706L148.231 17.7306H149.27L149.422 17.8706L149.566 18.4553H149.718C150.014 18.0188 150.606 17.5906 151.654 17.5906C152.845 17.5906 153.285 18.167 153.589 18.6035H153.741C154.189 18.027 154.933 17.5906 155.972 17.5906C158.051 17.5906 158.499 18.8918 158.499 20.4812V24.8294L158.356 24.9694L158.33 24.9612Z" fill="white"/>
<path d="M159.657 21.3459C159.657 19.32 160.697 17.5824 163.072 17.5824C165.447 17.5824 166.486 19.32 166.486 21.3459V21.7824L166.342 21.9306H161.441L161.288 22.0788C161.288 22.3671 161.441 23.8165 163.224 23.8165C163.815 23.8165 164.407 23.6682 164.711 22.9518L164.855 22.8035H166.047L166.199 22.9518C166.047 24.1129 165.007 25.1259 163.232 25.1259C160.857 25.1259 159.666 23.5365 159.666 21.3624L159.657 21.3459ZM164.855 20.6212C164.855 20.1847 164.711 18.8835 163.072 18.8835C161.432 18.8835 161.288 20.1847 161.288 20.6212L161.441 20.7694H164.711L164.855 20.6212Z" fill="white"/>
<path d="M174.067 24.9612H172.875L172.732 24.8212V20.6212C172.732 19.8965 172.58 18.8835 171.244 18.8835C169.909 18.8835 169.309 19.6082 169.309 21.3459V24.8212L169.157 24.9612H167.965L167.813 24.8212V17.8706L167.965 17.7306H169.005L169.148 17.8706L169.3 18.4553H169.453C169.453 18.4553 170.044 17.5906 171.388 17.5906C173.467 17.5906 174.211 18.8918 174.211 20.6294V24.8294L174.067 24.9694V24.9612Z" fill="white"/>
<path d="M179.856 24.9612H178.665C177.625 24.9612 176.586 24.3847 176.586 23.0835V19.1718L176.442 19.0318H175.402L175.25 18.8835V17.8706L175.402 17.7306H176.442L176.586 17.5823V16.2812L176.729 16.1329H177.921L178.073 16.2812V17.5823L178.225 17.7306H179.856L180 17.8706V18.8835L179.856 19.0318H178.225L178.073 19.1718V23.0835C178.073 23.52 178.369 23.66 178.665 23.66H179.856L180 23.8082V24.8212L179.856 24.9612Z" fill="white"/>
<path d="M88.3097 2.17411L88.2674 1.96823L88.1998 1.76235L88.1322 1.57294L88.0393 1.38352L87.9209 1.21058L87.7942 1.03764L87.6674 0.881171L87.5068 0.749406L87.3547 0.609406L87.1772 0.485877L86.9997 0.387053L86.8053 0.279994L86.611 0.214112L86.3997 0.156465L86.1799 0.107053L85.9855 0.0905825L85.7574 0.0741119H75.7254L75.3536 0.0905825L74.9817 0.107053L74.5929 0.156465L74.2211 0.214112L73.8492 0.296465L73.4942 0.403524L73.1224 0.518818L72.7674 0.642347L72.4293 0.798818L72.0744 0.971759L71.7617 1.1447L71.4405 1.35058L71.1194 1.55646L70.8236 1.77882L70.5362 2.02588L70.2573 2.28117L70.0038 2.56117L69.7587 2.83294L69.5305 3.12941L69.3023 3.41764L69.1079 3.74705L68.9135 4.05999L68.736 4.38941L68.5924 4.73529L68.4487 5.07294L68.3304 5.41882L68.2374 5.78117L68.1529 6.14352L68.0768 6.50588L68.043 6.86823L68.0092 7.24705V7.60941V8.25176V8.61411L68.043 8.99294L68.0768 9.35529L68.1529 9.71764L68.2374 10.08L68.3304 10.4423L68.4487 10.7882L68.5924 11.1341L68.736 11.48L68.9135 11.8012L69.1079 12.1141L69.3023 12.4435L69.5305 12.74L69.7587 13.0282L70.0038 13.3082L70.2573 13.58L70.5362 13.8435L70.8236 14.0823L71.1194 14.3047L71.4405 14.5106L71.7617 14.7247L72.0744 14.8976L72.4293 15.0623L72.7674 15.2188L73.1224 15.3423L73.4942 15.4659L73.8492 15.5647L74.2211 15.6388L74.5929 15.7047L74.9817 15.7541L75.3536 15.7788L75.7254 15.7953H80.6104H80.8217L81.033 15.8282L81.2443 15.8612L81.4555 15.9271L81.6499 16.0012L81.8443 16.0835L82.0218 16.2071L82.1993 16.3223L82.3598 16.4459L82.5035 16.6023L82.6472 16.7588L82.7655 16.9318L82.8754 17.1047L82.9768 17.2941L83.0529 17.4835L83.1036 17.6894L83.1543 17.8953L83.1712 18.1012L83.1881 18.3153V18.9329L83.1712 19.1388L83.1543 19.3447L83.1036 19.5506L83.0529 19.74L82.9768 19.9459L82.8754 20.1188L82.7655 20.3082L82.6472 20.4812L82.5035 20.6459L82.3598 20.7776L82.1993 20.9176L82.0218 21.0412L81.8443 21.14L81.6499 21.2223L81.4555 21.3129L81.2443 21.3623L81.033 21.42L80.8217 21.4282L80.6104 21.4529H70.57H70.3587L70.1474 21.4859L69.9361 21.5188L69.7418 21.5929L69.5474 21.6588L69.353 21.7412L69.1755 21.8482L68.998 21.9635L68.8375 22.1035L68.6769 22.26L68.5417 22.4165L68.4149 22.5894L68.305 22.7623L68.2205 22.9518L68.1275 23.1412L68.0768 23.3471L68.043 23.5365L68.0092 23.7423V23.9565V24.1788L68.043 24.3682L68.0768 24.5741L68.1275 24.78L68.2205 24.9694L68.305 25.1588L68.4149 25.3318L68.5417 25.5047L68.6769 25.6612L68.8375 25.8176L68.998 25.9412L69.1755 26.0565L69.353 26.18L69.5474 26.2623L69.7418 26.3365L69.9361 26.4023L70.1474 26.4353L70.3587 26.4765H70.57H80.6104H80.9992L81.371 26.4353L81.7429 26.3859L82.1317 26.3365L82.4866 26.2459L82.8585 26.1471L83.2135 26.04L83.56 25.9L83.9149 25.7518L84.253 25.5871L84.591 25.4059L84.9122 25.2165L85.208 24.9859L85.5123 24.7635L85.8081 24.5247L86.0785 24.2612L86.3405 24.0059L86.5856 23.7094L86.8222 23.4212L87.0335 23.1247L87.2448 22.8118L87.4392 22.4823L87.5998 22.1612L87.7604 21.8153L87.904 21.4694L88.0054 21.1235L88.1153 20.7612L88.1998 20.3988L88.2505 20.0365L88.3097 19.6741L88.3435 19.2953V18.9329V18.3153V17.9282L88.3097 17.5659L88.2505 17.1871L88.1998 16.8247L88.1153 16.4623L88.0054 16.1247L87.904 15.7541L87.7604 15.4082L87.5998 15.0871L87.4392 14.7576L87.2448 14.4282L87.0335 14.1153L86.8222 13.8106L86.5856 13.5141L86.3405 13.2341L86.0785 12.9623L85.8081 12.7235L85.5123 12.4765L85.208 12.2376L84.9122 12.0318L84.591 11.8423L84.253 11.6529L83.9149 11.48L83.56 11.34L83.2135 11.2L82.8585 11.0847L82.4866 10.9941L82.1317 10.9118L81.7429 10.8376L81.371 10.8047L80.9992 10.7718L80.6104 10.7553H75.7254H75.5141L75.3028 10.7141L75.1085 10.6812L74.8887 10.6318L74.6943 10.5412L74.5 10.4588L74.3225 10.36L74.145 10.2365L73.9929 10.0965L73.8323 9.93999L73.6886 9.78352L73.5618 9.61058L73.4604 9.43764L73.3675 9.24823L73.2998 9.05882L73.2322 8.85293L73.19 8.66352L73.1562 8.45764V8.25176V7.60941V7.40352L73.19 7.19764L73.2322 6.99176L73.2998 6.80235L73.3675 6.61293L73.4604 6.42352L73.5618 6.25058L73.6886 6.07764L73.8323 5.92117L73.9929 5.7647L74.145 5.6247L74.3225 5.50941L74.5 5.40235L74.6943 5.31999L74.8887 5.22941L75.1085 5.17999L75.3028 5.14705L75.5141 5.11411H75.7254H85.7574L85.9855 5.09764L86.1799 5.07294L86.3997 5.02352L86.611 4.97411L86.8053 4.88352L86.9997 4.80117L87.1772 4.69411L87.3547 4.57882L87.5068 4.43882L87.6674 4.29882L87.7942 4.12588L87.9209 3.96941L88.0393 3.77999L88.1322 3.59058L88.1998 3.40117L88.2674 3.21176L88.3097 3.00588L88.3435 2.79999V2.59411V2.38823L88.3097 2.17411Z" fill="white"/>
<path d="M43.4576 7.53529L43.4322 7.08235L43.39 6.59647L43.3224 6.13529L43.2041 5.67411L43.0688 5.21294L42.8914 4.77647L42.7139 4.34L42.4941 3.92L42.249 3.5L41.9786 3.1047L41.6828 2.72588L41.3447 2.38L41.0067 2.02588L40.6433 1.72117L40.2629 1.43294L39.8573 1.15294L39.4262 0.914113L38.9952 0.716466L38.5473 0.518819L38.074 0.362348L37.6261 0.230584L37.1528 0.123525L36.6541 0.0329367L36.2907 -4.45172e-06L36.1809 -0.00823975H25.3376L25.0925 0.0329367L24.8221 0.0988191L24.577 0.205878L24.3319 0.312937L24.1037 0.469407L23.9008 0.625878L23.698 0.823525L23.5205 1.02117L23.3853 1.24352L23.2501 1.48235L23.1571 1.72117L23.0895 1.9847V2.05058H23.0472V24.2118L23.0895 24.4753L23.1571 24.7388L23.2501 24.9776L23.3853 25.2165L23.5205 25.4388L23.698 25.6365L23.9008 25.8341L24.1037 25.9906L24.3319 26.1471L24.577 26.2541L24.8221 26.3612L25.0925 26.4271L25.3376 26.4682H25.8785L26.1489 26.4271L26.4194 26.3612L26.6645 26.2541L26.9096 26.1471L27.1378 25.9906L27.3406 25.8341L27.5434 25.6365L27.704 25.4388L27.8646 25.2165L27.9745 24.9776L28.0843 24.7388L28.1519 24.4753L28.1942 24.2118V5.04H35.5639C35.5639 5.04 35.716 5.00705 35.9611 5.04H35.9527L36.1724 5.08117C36.5274 5.16353 37.0007 5.3447 37.5162 5.78941L37.6007 5.88L37.6514 5.93764C37.7951 6.10235 38.0064 6.40705 38.1416 6.80235L38.2008 7.04117L38.243 7.3047L38.2684 7.56823V8.93529C38.2261 9.19882 38.1163 9.89882 37.6599 10.4259L37.5923 10.5L37.4655 10.64C37.4655 10.64 37.381 10.7141 37.3303 10.7553L37.1866 10.8541L37.0683 10.9365C36.7556 11.1259 36.2992 11.3153 35.7076 11.3235L33.7722 11.34H33.544H33.5102H33.4764L33.2989 11.3565L33.0285 11.3976L32.758 11.4635L32.5129 11.5459L32.2678 11.6529L32.0396 11.8094L31.8368 11.9659L31.6593 12.1635L31.4818 12.3612L31.3466 12.5835L31.2114 12.8059L31.1184 13.0447L31.0254 13.3082L30.9832 13.5718V14.0988L31.0254 14.3376L31.0931 14.6012L31.186 14.84L31.2959 15.0788L31.4311 15.3012L31.448 15.2682L38.7839 25.4223H38.767L38.9445 25.6282L39.122 25.8259L39.3248 25.9823L39.5699 26.1388L39.7981 26.2459L40.0432 26.3529L40.3136 26.4188L40.5841 26.46H41.125L41.3954 26.4188L41.6405 26.3282L41.911 26.2376L42.1392 26.1306L42.3674 25.9741L42.5956 25.8012L42.773 25.6282L42.9505 25.4306L43.0857 25.1918L43.221 24.9694L43.3139 24.7059L43.3815 24.4671L43.4238 24.2035L43.4492 23.94L43.4238 23.6765L43.3815 23.4129L43.3139 23.1494L43.221 22.9106L43.0857 22.6718L43.0012 22.5235H43.0097L38.243 15.9518L38.6487 15.8118L39.0966 15.6141L39.5277 15.3918L39.9333 15.1447L40.3136 14.8647L40.694 14.5765L41.0489 14.2718L41.387 13.9423L41.6997 13.5718L41.9955 13.1929L42.2406 12.8223L42.4857 12.4023L42.7139 11.9823L42.8914 11.5459L43.0519 11.1094L43.1872 10.6729L43.3055 10.2118L43.3731 9.75058L43.4153 9.28941L43.4322 8.94353V7.52705L43.4576 7.53529Z" fill="white"/>
<path d="M65.9386 2.13294L65.9048 1.92706L65.8287 1.72118L65.7611 1.53177L65.6766 1.34236L65.5498 1.16941L65.423 0.996473L65.3047 0.840003L65.1441 0.700003L64.9836 0.560003L64.8061 0.444708L64.6286 0.33765L64.4342 0.238826L64.2398 0.164708L64.0286 0.115297L63.8173 0.0658849L63.6229 0.0494143L63.3862 0.0329437H56.549H55.1714H48.3257L48.089 0.0494143L47.8946 0.0658849L47.6833 0.115297L47.4721 0.164708L47.2777 0.238826L47.0833 0.33765L46.9058 0.444708L46.7283 0.560003L46.5678 0.700003L46.4072 0.840003L46.2889 0.996473L46.1621 1.16941L46.0438 1.34236L45.9508 1.53177L45.8832 1.72118L45.8071 1.92706L45.7733 2.13294L45.7395 2.33883V2.54471V2.75059L45.7733 2.96471L45.8071 3.17059L45.8832 3.36L45.9508 3.54941L46.0438 3.73883L46.1621 3.92824L46.2889 4.08471L46.4072 4.25765L46.5678 4.38941L46.7283 4.52941L46.9058 4.65294L47.0833 4.76L47.2777 4.84236L47.4721 4.93294L47.6833 4.98236L47.8946 5.03177L48.089 5.04824L48.3257 5.06471H55.1714H56.549H63.3862L63.6229 5.04824L63.8173 5.03177L64.0286 4.98236L64.2398 4.93294L64.4342 4.84236L64.6286 4.76L64.8061 4.65294L64.9836 4.52941L65.1441 4.38941L65.3047 4.25765L65.423 4.08471L65.5498 3.92824L65.6766 3.73883L65.7611 3.54941L65.8287 3.36L65.9048 3.17059L65.9386 2.96471L65.9724 2.75059V2.54471V2.33883L65.9386 2.13294Z" fill="#00ABE4"/>
<path d="M65.9386 23.5365L65.9048 23.3306L65.8287 23.1247L65.7611 22.9353L65.6766 22.7459L65.5498 22.5729L65.423 22.4L65.3047 22.2435L65.1441 22.1035L64.9836 21.9718L64.8061 21.8482L64.6286 21.7412L64.4342 21.6424L64.2398 21.5682L64.0286 21.5188L63.8173 21.4694L63.6229 21.4529L63.3862 21.4365H56.549H55.1714H48.3257L48.089 21.4529L47.8946 21.4694L47.6833 21.5188L47.4721 21.5682L47.2777 21.6424L47.0833 21.7412L46.9058 21.8482L46.7283 21.9718L46.5678 22.1035L46.4072 22.2435L46.2889 22.4L46.1621 22.5729L46.0438 22.7459L45.9508 22.9353L45.8832 23.1247L45.8071 23.3306L45.7733 23.5365L45.7395 23.7424V23.9565V24.1624L45.7733 24.3682L45.8071 24.5741L45.8832 24.7635L45.9508 24.9529L46.0438 25.1424L46.1621 25.3318L46.2889 25.4882L46.4072 25.6612L46.5678 25.8012L46.7283 25.9412L46.9058 26.0565L47.0833 26.1635L47.2777 26.2459L47.4721 26.3365L47.6833 26.3859L47.8946 26.4353L48.089 26.4518L48.3257 26.4765H55.1714H56.549H63.3862L63.6229 26.4518L63.8173 26.4353L64.0286 26.3859L64.2398 26.3365L64.4342 26.2459L64.6286 26.1635L64.8061 26.0565L64.9836 25.9412L65.1441 25.8012L65.3047 25.6612L65.423 25.4882L65.5498 25.3318L65.6766 25.1424L65.7611 24.9529L65.8287 24.7635L65.9048 24.5741L65.9386 24.3682L65.9724 24.1624V23.9565V23.7424L65.9386 23.5365Z" fill="#00ABE4"/>
<path d="M65.9386 12.8388L65.9048 12.6247L65.8287 12.4188L65.7611 12.2294L65.6766 12.04L65.5498 11.8671L65.423 11.6941L65.3047 11.5377L65.1441 11.4059L64.9836 11.2659L64.8061 11.1424L64.6286 11.0435L64.4342 10.9365L64.2398 10.8706L64.0286 10.8212L63.8173 10.7635L63.6229 10.7471L63.3862 10.7306H56.549H55.1714H48.3257L48.089 10.7471L47.8946 10.7635L47.6833 10.8212L47.4721 10.8706L47.2777 10.9365L47.0833 11.0435L46.9058 11.1424L46.7283 11.2659L46.5678 11.4059L46.4072 11.5377L46.2889 11.6941L46.1621 11.8671L46.0438 12.04L45.9508 12.2294L45.8832 12.4188L45.8071 12.6247L45.7733 12.8388L45.7395 13.0447V13.2506V13.4565L45.7733 13.6624L45.8071 13.8682L45.8832 14.0576L45.9508 14.2553L46.0438 14.4447L46.1621 14.6259L46.2889 14.7906L46.4072 14.9553L46.5678 15.0953L46.7283 15.2353L46.9058 15.3588L47.0833 15.4577L47.2777 15.5482L47.4721 15.6306L47.6833 15.68L47.8946 15.7377L48.089 15.7541L48.3257 15.7706H55.1714H56.549H63.3862L63.6229 15.7541L63.8173 15.7377L64.0286 15.68L64.2398 15.6306L64.4342 15.5482L64.6286 15.4577L64.8061 15.3588L64.9836 15.2353L65.1441 15.0953L65.3047 14.9553L65.423 14.7906L65.5498 14.6259L65.6766 14.4447L65.7611 14.2553L65.8287 14.0576L65.9048 13.8682L65.9386 13.6624L65.9724 13.4565V13.2506V13.0447L65.9386 12.8388Z" fill="#00ABE4"/>
<path d="M20.1991 2.11646L20.1653 1.91058L20.0892 1.7047L20.0216 1.51529L19.9371 1.32588L19.8103 1.15293L19.6835 0.979994L19.5652 0.823523L19.4046 0.683523L19.2441 0.551758L19.0666 0.428229L18.8891 0.32117L18.6947 0.222347L18.5003 0.148229L18.289 0.0988172L18.0778 0.0494054L17.8834 0.0329348L17.6467 0.0164642H10.8095H9.43187H2.58616L2.35797 0.0329348L2.15513 0.0494054L1.94384 0.0988172L1.73256 0.148229L1.53817 0.222347L1.34379 0.32117L1.16631 0.428229L0.988825 0.551758L0.828247 0.683523L0.667668 0.823523L0.549347 0.979994L0.422575 1.15293L0.304254 1.32588L0.211287 1.51529L0.143675 1.7047L0.067612 1.91058L0.033806 2.11646L0 2.32235V2.53646V2.74235L0.033806 2.94823L0.067612 3.15411L0.143675 3.34352L0.211287 3.53293L0.304254 3.72235L0.422575 3.91176L0.549347 4.06823L0.667668 4.24117L0.828247 4.38117L0.988825 4.51293L1.16631 4.63646L1.34379 4.74352L1.53817 4.82588L1.73256 4.91646L1.94384 4.96588L2.15513 5.01529L2.35797 5.03999L2.58616 5.05646H9.43187H10.8095H17.6467L17.8834 5.03999L18.0778 5.01529L18.289 4.96588L18.5003 4.91646L18.6947 4.82588L18.8891 4.74352L19.0666 4.63646L19.2441 4.51293L19.4046 4.38117L19.5652 4.24117L19.6835 4.06823L19.8103 3.91176L19.9371 3.72235L20.0216 3.53293L20.0892 3.34352L20.1653 3.15411L20.1991 2.94823L20.2329 2.74235V2.53646V2.32235L20.1991 2.11646Z" fill="white"/>
<path d="M10.539 26.4353L10.7588 26.4023L10.97 26.3365L11.1644 26.2623L11.3588 26.18L11.5363 26.0565L11.7138 25.9412L11.8659 25.8176L12.0096 25.6612L12.1533 25.5047L12.28 25.3318L12.3814 25.1588L12.4913 24.9694L12.5589 24.78L12.6181 24.5741L12.6688 24.3682L12.6857 24.1788L12.7026 23.9565V20.2176V18.8753V8.82823L12.6857 8.60588L12.6688 8.41647L12.6181 8.21058L12.5589 8.0047L12.4913 7.81529L12.3814 7.62588L12.28 7.45294L12.1533 7.28L12.0096 7.12353L11.8659 6.96706L11.7138 6.84353L11.5363 6.72823L11.3588 6.6047L11.1644 6.52235L10.97 6.44823L10.7588 6.38235L10.539 6.34941L10.3277 6.31647H10.1164H9.90516L9.69387 6.34941L9.48258 6.38235L9.2882 6.44823L9.09381 6.52235L8.89943 6.6047L8.70504 6.72823L8.54446 6.84353L8.36698 6.96706L8.22331 7.12353L8.07963 7.28L7.95286 7.45294L7.85144 7.62588L7.76693 7.81529L7.67396 8.0047L7.62325 8.21058L7.56409 8.41647L7.54719 8.60588L7.53028 8.82823V18.8753V20.2176V23.9565L7.54719 24.1788L7.56409 24.3682L7.62325 24.5741L7.67396 24.78L7.76693 24.9694L7.85144 25.1588L7.95286 25.3318L8.07963 25.5047L8.22331 25.6612L8.36698 25.8176L8.54446 25.9412L8.70504 26.0565L8.89943 26.18L9.09381 26.2623L9.2882 26.3365L9.48258 26.4023L9.69387 26.4353L9.90516 26.4765H10.1164H10.3277L10.539 26.4353Z" fill="white"/>
</g>
<defs>
<clipPath id="clip0_306_3477">
<rect width="180" height="28" fill="white"/>
</clipPath>
</defs>
</svg>
